<svg xmlns="http://www.w3.org/2000/svg" viewBox="0 0 200 280">
  <rect width="200" height="280" fill="#000"/>
  <g transform="translate(20,10)">
    <rect x="50" y="160" width="80" height="56" rx="10" fill="#f1ede5"/>
    <rect x="36" y="163" width="20" height="52" rx="10" fill="#f0c6a6"/>
    <rect x="124" y="163" width="20" height="52" rx="10" fill="#f0c6a6"/>
    <rect x="60" y="214" width="60" height="35" rx="6" fill="#5e78a6"/>
    <rect x="60" y="247" width="20" height="24" fill="#f0c6a6"/>
    <rect x="100" y="247" width="20" height="24" fill="#f0c6a6"/>
    <rect x="54" y="266" width="30" height="12" rx="3" fill="#f1f1f1"/>
    <rect x="96" y="266" width="30" height="12" rx="3" fill="#f1f1f1"/>
    <circle cx="90" cy="95" r="42" fill="#f0c6a6"/>
    <path d="M45,110 Q36,60 75,40 Q90,28 120,42 Q152,58 140,112 Q130,138 110,140 Q85,143 66,132 Z" fill="#704528"/>
    <circle cx="78" cy="98" r="8" fill="#79b36a"/>
    <circle cx="104" cy="98" r="8" fill="#79b36a"/>
    <circle cx="80" cy="96" r="2" fill="#fff"/>
    <circle cx="106" cy="96" r="2" fill="#fff"/>
  </g>
</svg>
