<svg xmlns="http://www.w3.org/2000/svg" viewBox="0 0 200 280">
  <rect width="200" height="280" fill="#000"/>
  <g transform="translate(20,10)">
    <rect x="45" y="155" width="90" height="70" rx="10" fill="#4f7d5f"/>
    <rect x="28" y="158" width="24" height="66" rx="10" fill="#5d8b6d"/>
    <rect x="128" y="158" width="24" height="66" rx="10" fill="#5d8b6d"/>
    <rect x="60" y="222" width="60" height="28" rx="6" fill="#5d75a3"/>
    <rect x="60" y="245" width="20" height="26" fill="#f0c6a6"/>
    <rect x="100" y="245" width="20" height="26" fill="#f0c6a6"/>
    <rect x="54" y="266" width="30" height="12" rx="3" fill="#f1f1f1"/>
    <rect x="96" y="266" width="30" height="12" rx="3" fill="#f1f1f1"/>
    <circle cx="90" cy="95" r="42" fill="#f0c6a6"/>
    <path d="M45,110 Q36,60 75,40 Q90,28 120,42 Q152,58 140,112 Q130,138 110,140 Q85,143 66,132 Z" fill="#704528"/>
    <circle cx="78" cy="98" r="8" fill="#79b36a"/>
    <circle cx="104" cy="98" r="8" fill="#79b36a"/>
    <circle cx="80" cy="96" r="2" fill="#fff"/>
    <circle cx="106" cy="96" r="2" fill="#fff"/>
  </g>
</svg>
